#!OML:ASF F:\VICON\USERDATA\INSTALL\rory3\rory3.ASF
:FULLY-SPECIFIED
:DEGREES
36
root -5.7995465240215545 17.762408818085415 3.4536756113626867 3.6754131656738593 33.41170029405388 -7.346560011681177
lfemur 1.5028615197139885 20.086890141909706 6.842056813556303
ltibia 35.1707898918129
lfoot 13.519993992184462 15.054689941842947
ltoes -29.550590284759043
rfemur -29.3116920433042 22.597982474500498 24.02019402801986
rtibia 33.15699069901108
rfoot -2.72173545344634 26.350685661759222
rtoes 35.140690900349256
lowerback 0.8908886049207925 -9.748018755911266 -14.945386593282523
upperback -2.177772336200385 -13.177289013055685 -5.164097018970308
thorax -0.7599886902296163 -6.304588914183087 2.594768939263012
lowerneck -5.164530634438496 22.309387964958677 1.7406729728354287
upperneck 13.190107960050174 32.521188126326315 -13.329988751511307
head 7.44949600630558 14.764787180146103 -1.3063708449862153
lclavicle -5.0081940092235785e-15 -1.0203021517462924e-14
lhumerus 116.12698420624585 -38.96459667304765 44.45950678798323
lradius 40.16550146572138
lwrist 6.548566901244644
lhand -26.101390700994205 -2.611849397331177
lfingers 7.125020000000001
lthumb -179.55199069728954 207.36699002736145
rclavicle -5.0081940092235785e-15 -1.0203021517462924e-14
rhumerus 32.20390190223061 -29.267785642707917 -53.05981026070484
rradius 109.76398424180911
rwrist 4.798120645409533
rhand -60.45039191759812 20.228596827509424
rfingers 7.125020000000001
rthumb -32.580491447174666 -6.85921389417507
37
root -5.802496461453712 17.78840729302462 3.4505358128140293 3.8421890886512813 33.18020041941617 -7.291647663819944
lfemur 1.3934019416817982 20.2053904866721 6.879777591009384
ltibia 35.04029002235738
lfoot 15.088192699998638 14.104689724278087
ltoes -31.189690407625104
rfemur -29.16619208516017 22.577282836517888 23.895994454114945
rtibia 32.4605912586964
rfoot -1.3018354755966106 26.565987059502703
rtoes 37.25578952766942
lowerback 0.9226723165108379 -9.688928188811111 -14.930286857770543
upperback -2.1409424355696056 -13.102788874801277 -5.127077420104248
thorax -0.7433347234282124 -6.271498633939256 2.6323088549919396
lowerneck -4.9594314354872635 22.320786779438855 1.6259033604957285
upperneck 12.732508515042957 32.41218630706405 -13.248488815381416
head 7.223316727740606 14.77068738856152 -1.3455304777849246
lclavicle -5.008196193866891e-15 -1.0203021230844426e-14
lhumerus 116.44798761314365 -38.490597207613824 44.85570703666138
lradius 40.469901326168966
lwrist 6.7634367480777655
lhand -26.001390822185343 -1.9771592968595364
lfingers 7.125020000000001
lthumb -179.45599071104246 208.00199321702155
rclavicle -5.008196193866891e-15 -1.0203021230844426e-14
rhumerus 32.441201811476816 -29.88088563301987 -51.398410040037376
rradius 109.60698575181235
rwrist 4.6175112903230335
rhand -60.781392040609234 19.931196779842686
rfingers 7.125020000000001
rthumb -32.89539199754409 -7.091064077941494
38
root -5.803986432903552 17.808206138925247 3.4327257705977243 4.181992150972917 33.22020042862309 -7.3719119473821735
lfemur 0.7982812886166428 20.18409008226436 6.85390689219008
ltibia 35.071890177263874
lfoot 15.897091851238619 13.468789794713546
ltoes -30.583491115509876
rfemur -29.321892589745268 22.457683083779536 23.732694512435536
rtibia 31.717292268250326
rfoot -0.6204321132680013 26.672885637688182
rtoes 37.707488978222216
lowerback 0.7245548054090691 -9.699408962720863 -14.81228698978073
upperback -2.106222426007351 -13.072089034402826 -4.994427516762398
thorax -0.593019026359233 -6.270258380651423 2.669458798307419
lowerneck -4.645361936897902 22.42418592865787 1.6647031669830787
upperneck 12.506408778842614 32.50738838137725 -13.349988026618357
head 7.12997701819362 14.847887838062992 -1.4113498625728345
lclavicle -5.008196058538293e-15 -1.0203021737939125e-14
lhumerus 116.68398511585482 -38.004096883259606 44.89250614532944
lradius 40.478401451976886
lwrist 6.374256599988303
lhand -26.620390079744887 -2.5626198112672682
lfingers 7.125020000000001
lthumb -180.0529901612209 207.4169899583041
rclavicle -5.008196058538293e-15 -1.0203021737939125e-14
rhumerus 32.58080168611985 -30.32278545257577 -50.54351234648314
rradius 109.4019863065903
rwrist 4.124232048201538
rhand -60.81609160283385 20.088896921759385
rfingers 7.125020000000001
rthumb -32.928391877717566 -6.926403979128564
39
root -5.8060163846951784 17.834804583062272 3.39670608682858 4.192631702024215 33.42310030061653 -7.554291512367072
lfemur 0.48847226406681443 19.907290029463574 6.901567390431715
ltibia 34.98689004913025
lfoot 16.165192108475857 12.08109005826613
ltoes -31.568489321743645
rfemur -29.161191895273788 22.005382714220026 23.786194550233795
rtibia 30.947492947197773
rfoot -0.3452561265356575 26.979485960679064
rtoes 37.23529010257958
lowerback 0.8925056268394091 -9.612878920990898 -14.730487157476013
upperback -1.9308925983552787 -12.970988529284142 -4.872777980887848
thorax -0.5009742148852082 -6.235848682016281 2.771758593383881
lowerneck -4.60788242193848 22.51908606944853 1.4725337585398957
upperneck 12.537808719915464 32.62138691340063 -13.215088576847792
head 7.0898870642402265 14.906686986859166 -1.3546703928963286
lclavicle -5.008194592443238e-15 -1.0203020900130792e-14
lhumerus 116.78398427481885 -37.8876977129469 44.99950608695199
lradius 40.33540153019437
lwrist 6.603746300121614
lhand -26.55539066114377 -2.312048682695888
lfingers 7.125020000000001
lthumb -179.9909907272577 207.66799611833738
rclavicle -5.008194592443238e-15 -1.0203020900130792e-14
rhumerus 32.580602209733186 -30.517283757360428 -50.15851158249336
rradius 108.98698711514852
rwrist 3.379241617233049
rhand -61.01269154086471 20.355796327404462
rfingers 7.125020000000001
rthumb -33.115391557005495 -6.6200140400729275
40
root -5.810316302500212 17.850303681145284 3.3372362479505195 4.165984811981474 33.83420015920108 -7.852358235915048
lfemur 0.031074970316602446 19.80929053490988 6.950867514823946
ltibia 34.89669032587826
lfoot 16.158791801177475 10.102191092801094
ltoes -33.675689739568554
rfemur -29.211792968535455 21.59358386166752 23.809794332099404
rtibia 30.314893950856884
rfoot 0.12275447702793496 26.911484506567568
rtoes 37.231489839797995
lowerback 1.2214320218858865 -9.506398602430075 -14.416887422603839
upperback -1.778212763520595 -12.877089124599774 -4.80043814421121
thorax -0.5807710507565718 -6.197758539079601 2.7471986443440177
lowerneck -4.52218259690888 22.41558671536595 1.6764332702004427
upperneck 12.96260837145695 32.55048649856324 -13.22728873709994
head 7.244536587077031 14.849987122070429 -1.365780289222514
lclavicle -5.008195997316883e-15 -1.0203021583605926e-14
lhumerus 116.33798725717344 -38.62039734196348 45.586205831630636
lradius 39.871201812330426
lwrist 6.370986445689045
lhand -25.593591345787015 -1.7797303701206282
lfingers 7.125020000000001
lthumb -179.061990953205 208.1979872529534
rclavicle -5.008195997316883e-15 -1.0203021583605926e-14
rhumerus 32.111801904714156 -30.36008439467709 -50.19341203849661
rradius 108.3399849187448
rwrist 2.455902126477966
rhand -61.5208914022756 19.380697309020093
rfingers 7.125020000000001
rthumb -33.59849152919594 -7.491313682937204
41
root -5.818842299763849 17.86744558974135 3.296809650891083 2.74169701062263 34.184486431486796 -10.159202192592488
lfemur -0.2841374199816542 20.20644128626286 7.043731206153474
ltibia 35.16901294151292
lfoot 14.431117152327946 8.134382657694472
ltoes -22.23708942385301
rfemur -29.03190481861681 21.03190613895206 23.7897668923747
rtibia 30.072662764128868
rfoot -0.904251493916326 27.189764849786933
rtoes 38.280811001856755
lowerback 1.7367307160596455 -9.412375744938231 -14.592003289611082
upperback -1.6709527842304999 -13.29334963404446 -4.823754186045054
thorax -0.7405958579215974 -6.392633013950608 2.941750254991881
lowerneck -5.742283381965173 22.05610195808002 0.0693610464681339
upperneck 13.388369231092867 32.06546067978371 -12.681809964785195
head 7.386152624643188 14.539902560212552 -1.070472847535969
lclavicle -4.9893451565541954e-15 -1.0358837621669031e-14
lhumerus 115.24907719690296 -37.51966922722828 44.09640017889963
lradius 39.61103978180618
lwrist 6.289913103119359
lhand -25.98125812894834 -2.0229246834799355
lfingers 7.125020000000001
lthumb -179.66337756779873 216.32831582774674
rclavicle -4.9937749986471814e-15 -1.019020690820327e-14
rhumerus 32.85787973890952 -29.703867643469547 -49.79810652667443
rradius 107.37449757297233
rwrist 1.9469858339463748
rhand -61.38629869835308 16.768892763368953
rfingers 7.125020000000001
rthumb -33.570133884956725 -8.834531093845087
42
root -5.83772610990969 17.868032015484953 3.2396764408483256 1.8160233888427797 34.95749772343861 -11.270964264466144
lfemur -0.6936556420332387 20.705518785807584 7.128555857161793
ltibia 35.31679149365749
lfoot 13.299467846455423 7.722705315497334
ltoes -16.650769576053115
rfemur -29.300592982394996 20.411347366020465 23.792345378089976
rtibia 29.971955634132364
rfoot -1.655587335242175 27.384974500065397
rtoes 38.80644143353605
lowerback 2.2950916762187874 -9.382782111932748 -14.797581645036741
upperback -1.4671102475275597 -13.390068026362552 -4.884985352117184
thorax -0.7551579155052651 -6.446622156765011 3.041356298953076
lowerneck -6.106665401932128 22.579030501492298 -0.501334909312518
upperneck 13.465472582094815 32.24794637958229 -12.402339817195115
head 7.464406148961315 14.618247604569618 -0.8958691371353481
lclavicle -4.9903343489972805e-15 -1.0351267464370048e-14
lhumerus 114.52990499705336 -36.721338867376254 43.097615029301764
lradius 39.41922910562762
lwrist 6.394184491738949
lhand -25.924942342114306 -2.1766289519154576
lfingers 7.125020000000001
lthumb -179.90859660041133 219.9924810154227
rclavicle -4.9935098436228116e-15 -1.0189974854424446e-14
rhumerus 33.403496063603946 -29.011636735308965 -49.74450774603252
rradius 106.48449516235317
rwrist 1.0909348454585093
rhand -61.266112966073905 14.81755056742569
rfingers 7.125020000000001
rthumb -33.6314969091534 -9.73510248852948
43
root -5.854909860507579 17.874412239932305 3.1746247716445577 1.2813034889804982 36.0146165332736 -11.814454813291093
lfemur -1.2415489514453206 21.338078197233575 7.154050089061844
ltibia 35.449993083727136
lfoot 12.053959286223272 7.736948597660204
ltoes -12.927881470160033
rfemur -29.69597360367542 19.671629103853213 23.818707200302686
rtibia 29.887089892216185
rfoot -2.221555790327078 27.55257132532043
rtoes 38.88392457435069
lowerback 2.877393700661527 -9.346206131518166 -14.998596469786046
upperback -1.2328296678050776 -13.44657584281694 -4.909459191804938
thorax -0.7065437025110319 -6.478377576979208 3.1233828643664263
lowerneck -6.1871338358733405 22.940528898823814 -0.592652443638383
upperneck 13.438667147090147 32.481829499366064 -12.216618461790022
head 7.526944873365302 14.685233135881068 -0.817698385074745
lclavicle -4.9937993487156936e-15 -1.0341775479545225e-14
lhumerus 113.75060408468808 -36.17762779724857 42.51615770646562
lradius 39.24607035598842
lwrist 6.612679233363933
lhand -25.63917963672524 -2.295769412443562
lfingers 7.125020000000001
lthumb -179.8662283213974 225.70364092986688
rclavicle -4.992932838169695e-15 -1.0189397337075956e-14
rhumerus 33.75375833202151 -28.425794878164506 -50.07829700741624
rradius 105.63883921560947
rwrist -0.10954263840349299
rhand -61.13345123157711 13.009679741355097
rfingers 7.125020000000001
rthumb -33.787703189045814 -10.407345517742412
